<svg xmlns="http://www.w3.org/2000/svg" xmlns:xlink="http://www.w3.org/1999/xlink" width="500" zoomAndPan="magnify" viewBox="0 0 375 374.999991" height="500" preserveAspectRatio="xMidYMid meet" version="1.0"><defs><g/><clipPath id="94ec64ae7c"><path d="M 139.519531 129.160156 L 235.519531 129.160156 L 235.519531 238.660156 L 139.519531 238.660156 Z M 139.519531 129.160156 " clip-rule="nonzero"/></clipPath><clipPath id="d38e435c41"><path d="M 94 203.597656 L 281 203.597656 L 281 279.347656 L 94 279.347656 Z M 94 203.597656 " clip-rule="nonzero"/></clipPath></defs><g clip-path="url(#94ec64ae7c)"><path fill="#3d3835" d="M 220.660156 180.773438 C 224.398438 182.714844 227.3125 186.195312 228.5625 190.222656 C 226.429688 186.898438 222.988281 184.398438 219.183594 183.335938 C 220.5625 183.273438 222.015625 183.472656 223.292969 183.996094 C 222.558594 182.792969 221.722656 181.695312 220.660156 180.773438 Z M 145.449219 197.503906 C 142.753906 200.703125 143.605469 205.632812 141.097656 208.976562 C 143.097656 209.253906 145.246094 208.835938 147 207.832031 C 148.753906 206.824219 150.160156 205.226562 150.929688 203.355469 C 151.464844 205.316406 150.792969 207.464844 149.1875 208.703125 C 150.753906 209.324219 152.78125 208.867188 154.082031 207.789062 C 152.230469 212.066406 152.652344 217.125 155.273438 220.980469 C 155.085938 217.699219 156.816406 214.382812 159.566406 212.582031 C 159.261719 213.351562 159.105469 214.019531 158.988281 214.839844 C 162.175781 215.253906 165.15625 217.074219 166.925781 219.757812 C 168.015625 219.507812 169.046875 218.523438 169.351562 217.445312 C 169.738281 218.066406 169.902344 218.800781 169.765625 219.519531 C 169.628906 220.238281 169.214844 220.898438 168.625 221.332031 C 168.203125 222.914062 169.03125 224.570312 168.90625 226.203125 C 168.804688 227.484375 168.089844 228.703125 167.023438 229.417969 C 169.195312 229.535156 171.523438 228.757812 173.183594 227.351562 C 174.839844 225.945312 175.933594 223.890625 176.171875 221.730469 C 177.027344 224.023438 176.40625 226.859375 174.558594 228.464844 C 174.722656 229.480469 175.492188 230.316406 176.28125 230.980469 C 177.070312 231.644531 177.921875 232.351562 178.191406 233.34375 C 179.011719 232.652344 179.628906 231.664062 179.925781 230.632812 C 180.484375 232.46875 182.320312 233.597656 183.902344 234.683594 C 185.488281 235.769531 187.160156 237.089844 187.496094 238.980469 C 187.832031 237.089844 189.503906 235.769531 191.089844 234.683594 C 192.671875 233.597656 194.507812 232.46875 195.066406 230.632812 C 195.363281 231.664062 195.980469 232.652344 196.800781 233.34375 C 197.070312 232.351562 197.921875 231.644531 198.710938 230.980469 C 199.5 230.320312 200.269531 229.480469 200.433594 228.464844 C 198.585938 226.859375 197.964844 224.023438 198.820312 221.730469 C 199.058594 223.890625 200.152344 225.945312 201.808594 227.351562 C 203.46875 228.757812 205.800781 229.535156 207.96875 229.417969 C 206.902344 228.703125 206.1875 227.484375 206.085938 226.203125 C 205.960938 224.570312 206.789062 222.914062 206.367188 221.332031 C 205.777344 220.898438 205.363281 220.238281 205.226562 219.519531 C 205.089844 218.800781 205.253906 218.066406 205.640625 217.445312 C 205.945312 218.523438 206.976562 219.507812 208.066406 219.757812 C 209.835938 217.074219 212.816406 215.257812 216.003906 214.839844 C 215.886719 214.019531 215.730469 213.351562 215.429688 212.582031 C 218.175781 214.382812 219.90625 217.699219 219.71875 220.980469 C 222.339844 217.125 222.761719 212.066406 220.910156 207.789062 C 222.210938 208.867188 224.238281 209.324219 225.804688 208.703125 C 224.199219 207.464844 223.53125 205.316406 224.0625 203.355469 C 224.832031 205.226562 226.238281 206.824219 227.992188 207.832031 C 229.746094 208.835938 231.894531 209.253906 233.898438 208.976562 C 231.386719 205.632812 232.238281 200.703125 229.542969 197.503906 C 231.453125 198.027344 233.613281 197.921875 235.441406 197.15625 C 232.980469 195.0625 231.425781 192.121094 230.046875 189.203125 C 228.667969 186.285156 227.308594 183.28125 225.21875 180.816406 C 226.5625 181.351562 227.980469 181.183594 229.285156 180.558594 C 227.128906 178.863281 225.972656 176.210938 225.070312 173.621094 C 224.167969 171.027344 223.289062 168.410156 221.632812 166.21875 C 224.128906 162.671875 224.828125 158.121094 224.535156 153.789062 C 223.972656 145.507812 220.03125 137.527344 220.617188 129.15625 C 210.882812 130.246094 202.609375 143.410156 194.875 146.558594 C 195.175781 146.246094 195.230469 145.765625 195.183594 145.332031 C 194.179688 146.101562 192.953125 146.542969 191.707031 146.777344 C 189.492188 147.195312 185.496094 147.195312 183.28125 146.777344 C 182.039062 146.542969 180.8125 146.101562 179.804688 145.332031 C 179.761719 145.765625 179.816406 146.246094 180.117188 146.558594 C 172.382812 143.410156 164.109375 130.246094 154.375 129.15625 C 154.960938 137.527344 151.019531 145.507812 150.457031 153.789062 C 150.160156 158.121094 150.859375 162.671875 153.359375 166.21875 C 151.703125 168.410156 150.824219 171.027344 149.921875 173.621094 C 149.015625 176.210938 147.863281 178.863281 145.703125 180.558594 C 147.007812 181.183594 148.425781 181.351562 149.773438 180.816406 C 147.683594 183.28125 146.324219 186.28125 144.945312 189.203125 C 143.566406 192.121094 142.007812 195.0625 139.550781 197.15625 C 141.378906 197.921875 143.539062 198.027344 145.445312 197.503906 Z M 187.496094 226.214844 C 187.667969 224.273438 188.921875 222.617188 190.433594 221.382812 C 191.945312 220.144531 193.679688 219.199219 195.128906 217.886719 C 195.859375 217.226562 196.511719 216.480469 197.300781 215.890625 C 198.085938 215.300781 199.125 214.867188 200.105469 214.980469 C 200.144531 216.605469 200.210938 218.261719 200.746094 219.796875 C 201.285156 221.332031 202.476562 222.789062 204 223.359375 C 203.046875 222.585938 202.515625 221.402344 202.226562 220.210938 C 201.699219 218.050781 201.871094 215.726562 202.710938 213.667969 C 203.550781 211.605469 205.125 209.734375 207.011719 208.554688 C 207.664062 210.59375 207.460938 212.980469 206.429688 214.855469 C 208.679688 212.164062 209.8125 208.558594 209.5 205.0625 C 209.355469 203.460938 209.042969 201.738281 209.871094 200.363281 C 209.773438 201.175781 209.949219 202.023438 210.363281 202.730469 C 210.777344 203.4375 211.496094 203.957031 212.253906 204.273438 C 211.75 203.824219 211.730469 203.015625 212.003906 202.398438 C 212.273438 201.777344 212.769531 201.292969 213.207031 200.78125 C 214.148438 199.675781 214.855469 198.378906 215.277344 196.992188 C 215.542969 196.105469 215.695312 195.183594 216.042969 194.328125 C 216.386719 193.46875 217.027344 192.582031 217.878906 192.226562 C 217.382812 191.835938 216.886719 191.542969 216.265625 191.429688 C 218.136719 191.316406 220.078125 191.632812 221.808594 192.363281 C 220.042969 190.871094 217.839844 190.066406 215.53125 189.964844 C 215.042969 192.199219 213.859375 194.28125 212.1875 195.847656 C 210.515625 197.410156 208.394531 198.421875 206.128906 198.761719 C 207.570312 197.925781 208.730469 196.609375 209.386719 195.074219 C 209.667969 194.410156 209.859375 193.703125 210.171875 193.046875 C 210.480469 192.390625 210.953125 191.828125 211.605469 191.511719 C 210.539062 190.890625 209.183594 191.207031 208.050781 191.691406 C 206.921875 192.175781 205.875 192.679688 204.644531 192.699219 C 206.226562 191.484375 207.171875 189.550781 207.09375 187.554688 C 206.363281 188.554688 205.039062 189.089844 203.820312 188.871094 C 203.230469 188.765625 202.679688 188.507812 202.09375 188.382812 C 201.511719 188.257812 200.871094 188.320312 200.4375 188.734375 C 201.230469 190.144531 201.191406 192.082031 200.3125 193.441406 C 200.570312 192.519531 200.113281 191.535156 199.484375 190.816406 C 198.851562 190.097656 198.042969 189.550781 197.390625 188.855469 C 196.734375 188.15625 196.222656 187.21875 196.386719 186.273438 C 195.210938 187.417969 194.582031 189.257812 194.417969 190.886719 C 194.257812 192.519531 194.492188 194.160156 194.773438 195.777344 C 195.054688 197.390625 195.28125 199.007812 195.304688 200.644531 C 194.746094 199.964844 193.894531 199.527344 193.015625 199.46875 C 192.136719 199.410156 191.273438 199.746094 190.625 200.347656 C 192.144531 200.121094 193.738281 200.804688 194.71875 201.988281 C 195.699219 203.171875 196.085938 204.792969 195.875 206.316406 C 195.667969 207.835938 194.953125 209.429688 193.882812 210.53125 C 194.480469 211.113281 195.269531 211.746094 196.0625 211.484375 C 196.625 211.296875 196.949219 210.726562 197.253906 210.21875 C 197.925781 209.117188 198.753906 208.109375 199.710938 207.246094 C 200.800781 206.261719 202.085938 205.414062 202.757812 204.109375 C 203.265625 203.117188 203.355469 201.917969 203 200.859375 C 202.730469 200.066406 202.234375 199.375 201.84375 198.628906 C 201.457031 197.886719 201.335938 197.066406 201.546875 196.253906 C 201.949219 198.457031 206.003906 200.210938 206.003906 203.167969 C 206.003906 206.125 202.75 208.328125 200.792969 209.679688 C 198.839844 211.035156 196.585938 214.039062 194.730469 215.945312 C 191.667969 219.09375 183.324219 219.09375 180.261719 215.945312 C 178.40625 214.039062 176.152344 211.035156 174.199219 209.679688 C 172.246094 208.328125 168.988281 206.125 168.988281 203.167969 C 168.988281 200.210938 173.046875 198.457031 173.445312 196.253906 C 173.65625 197.066406 173.535156 197.886719 173.148438 198.628906 C 172.761719 199.375 172.261719 200.066406 171.992188 200.859375 C 171.636719 201.917969 171.726562 203.117188 172.234375 204.109375 C 172.90625 205.414062 174.191406 206.261719 175.28125 207.246094 C 176.238281 208.109375 177.070312 209.117188 177.738281 210.21875 C 178.046875 210.726562 178.367188 211.296875 178.929688 211.484375 C 179.726562 211.746094 180.511719 211.113281 181.113281 210.53125 C 180.039062 209.429688 179.328125 207.835938 179.117188 206.316406 C 178.90625 204.792969 179.292969 203.171875 180.273438 201.988281 C 181.253906 200.804688 182.847656 200.121094 184.367188 200.347656 C 183.722656 199.746094 182.855469 199.410156 181.976562 199.46875 C 181.097656 199.527344 180.25 199.964844 179.6875 200.644531 C 179.710938 199.007812 179.941406 197.390625 180.21875 195.777344 C 180.5 194.160156 180.734375 192.519531 180.574219 190.886719 C 180.414062 189.257812 179.78125 187.417969 178.605469 186.273438 C 178.773438 187.21875 178.257812 188.15625 177.601562 188.855469 C 176.949219 189.550781 176.144531 190.097656 175.511719 190.816406 C 174.878906 191.535156 174.425781 192.519531 174.679688 193.441406 C 173.800781 192.082031 173.761719 190.144531 174.554688 188.734375 C 174.121094 188.320312 173.484375 188.257812 172.898438 188.382812 C 172.3125 188.507812 171.761719 188.769531 171.171875 188.871094 C 169.953125 189.089844 168.628906 188.554688 167.898438 187.554688 C 167.820312 189.550781 168.765625 191.484375 170.351562 192.699219 C 169.117188 192.679688 168.074219 192.175781 166.941406 191.691406 C 165.808594 191.207031 164.453125 190.890625 163.386719 191.511719 C 164.039062 191.828125 164.511719 192.390625 164.824219 193.046875 C 165.132812 193.703125 165.324219 194.410156 165.609375 195.074219 C 166.261719 196.609375 167.421875 197.925781 168.863281 198.761719 C 166.601562 198.421875 164.476562 197.410156 162.804688 195.847656 C 161.132812 194.28125 159.953125 192.199219 159.460938 189.964844 C 157.152344 190.066406 154.949219 190.871094 153.183594 192.363281 C 154.914062 191.632812 156.855469 191.316406 158.730469 191.429688 C 158.105469 191.542969 157.609375 191.835938 157.113281 192.226562 C 157.964844 192.582031 158.605469 193.46875 158.949219 194.328125 C 159.296875 195.183594 159.449219 196.105469 159.714844 196.992188 C 160.136719 198.378906 160.847656 199.675781 161.785156 200.78125 C 162.222656 201.292969 162.71875 201.777344 162.992188 202.398438 C 163.261719 203.015625 163.246094 203.824219 162.738281 204.273438 C 163.496094 203.957031 164.214844 203.4375 164.628906 202.730469 C 165.042969 202.023438 165.21875 201.175781 165.121094 200.363281 C 165.949219 201.738281 165.636719 203.460938 165.492188 205.0625 C 165.183594 208.558594 166.3125 212.164062 168.566406 214.855469 C 167.53125 212.980469 167.328125 210.59375 167.980469 208.554688 C 169.867188 209.734375 171.445312 211.605469 172.28125 213.667969 C 173.121094 215.726562 173.292969 218.050781 172.765625 220.210938 C 172.476562 221.402344 171.945312 222.585938 170.992188 223.359375 C 172.515625 222.789062 173.707031 221.332031 174.246094 219.796875 C 174.78125 218.261719 174.851562 216.605469 174.890625 214.980469 C 175.867188 214.867188 176.90625 215.300781 177.695312 215.890625 C 178.484375 216.480469 179.136719 217.226562 179.867188 217.886719 C 181.3125 219.199219 183.050781 220.144531 184.558594 221.382812 C 186.070312 222.617188 187.324219 224.273438 187.496094 226.214844 Z M 187.496094 215.84375 C 186.644531 215.84375 184.871094 215.441406 183.96875 215.34375 C 183.066406 215.242188 182.214844 214.542969 182.214844 213.4375 C 183.46875 213.941406 185.691406 213.339844 187.496094 213.339844 C 189.300781 213.339844 191.527344 213.941406 192.777344 213.4375 C 192.777344 214.542969 191.925781 215.242188 191.023438 215.34375 C 190.125 215.441406 188.347656 215.84375 187.496094 215.84375 Z M 187.496094 203.570312 C 185.945312 203.570312 181.613281 204.320312 182.164062 203.417969 C 182.714844 202.515625 185.742188 201.765625 187.496094 201.765625 C 189.25 201.765625 192.277344 202.515625 192.828125 203.417969 C 193.378906 204.320312 189.050781 203.570312 187.496094 203.570312 Z M 219.105469 169.242188 C 220.007812 172.683594 222.039062 175.824219 224.8125 178.058594 C 222.867188 178.148438 220.777344 177.425781 219.277344 176.1875 C 217.773438 174.949219 216.871094 173.15625 216.585938 171.230469 C 217.164062 172.859375 218.425781 174.214844 219.984375 174.960938 C 218.871094 173.277344 218.566406 171.1875 219.105469 169.242188 Z M 196.570312 148.78125 C 202.695312 145.347656 210.996094 134.980469 217.816406 134.40625 C 212.925781 136.804688 205.242188 143.621094 204.707031 149.894531 C 206.195312 148.789062 208.113281 148.21875 209.964844 148.320312 C 207.519531 149.175781 205.472656 151.128906 204.726562 153.609375 C 205.65625 153.792969 206.648438 153.800781 207.570312 153.59375 C 208.492188 153.386719 209.371094 152.886719 209.917969 152.117188 C 209.554688 153.664062 208.753906 155.035156 207.480469 155.984375 C 208.242188 156.308594 209.089844 156.144531 209.910156 156.019531 C 210.726562 155.898438 211.613281 155.804688 212.339844 156.195312 C 211.738281 156.027344 211.070312 156.414062 210.761719 156.957031 C 210.453125 157.5 210.507812 158.210938 210.839844 158.738281 C 211.167969 159.265625 211.75 159.613281 212.367188 159.722656 C 212.980469 159.835938 213.621094 159.722656 214.191406 159.472656 C 215.085938 159.085938 215.863281 158.292969 215.957031 157.324219 C 216.097656 158.105469 215.972656 159.015625 215.53125 159.671875 C 215.089844 160.332031 214.382812 160.808594 213.605469 160.972656 C 212.195312 161.273438 210.683594 160.667969 209.242188 160.742188 C 207.167969 157.160156 203.898438 154.359375 200.246094 152.414062 C 200.730469 152 201.210938 151.5625 201.589844 151.046875 C 200.253906 151.65625 198.734375 152.125 197.265625 152.226562 C 199.710938 150.804688 201.558594 148.515625 202.566406 145.875 C 200.820312 147.253906 198.738281 148.28125 196.570312 148.78125 Z M 193.015625 169.902344 C 194.300781 169.050781 195.914062 168.859375 197.453125 168.914062 C 198.996094 168.96875 200.523438 169.246094 202.066406 169.234375 C 202.75 169.230469 203.441406 169.167969 204.078125 168.910156 C 204.710938 168.65625 205.25 168.160156 205.511719 167.527344 C 205.609375 168.722656 204.832031 169.851562 203.832031 170.515625 C 202.835938 171.179688 201.640625 171.464844 200.472656 171.738281 C 199.304688 172.011719 198.113281 172.296875 197.109375 172.953125 C 196.109375 173.613281 195.492188 174.710938 195.578125 175.90625 C 196.375 175.03125 197.527344 174.535156 198.699219 174.382812 C 199.871094 174.226562 201.066406 174.394531 202.210938 174.691406 C 203.800781 175.101562 205.492188 175.757812 207.023438 175.164062 C 207.632812 174.929688 208.167969 174.484375 208.53125 173.9375 C 208.605469 174.976562 207.886719 175.941406 206.964844 176.421875 C 206.039062 176.902344 204.957031 176.964844 203.917969 176.894531 C 202.878906 176.824219 201.847656 176.628906 200.804688 176.628906 C 199.765625 176.628906 198.679688 176.847656 197.871094 177.507812 C 196.875 178.324219 196.480469 179.644531 195.976562 180.832031 C 195.472656 182.019531 194.636719 183.265625 193.363281 183.472656 C 194.097656 183.007812 194.515625 182.171875 194.675781 181.316406 C 194.835938 180.460938 194.78125 179.550781 194.703125 178.683594 C 192.84375 178.296875 191.292969 176.71875 190.933594 174.855469 C 190.574219 172.992188 191.433594 170.949219 193.015625 169.902344 Z M 200.367188 180.769531 C 201.046875 180.769531 201.59375 180.222656 201.59375 179.542969 C 201.59375 179.1875 201.441406 178.867188 201.195312 178.640625 C 201.605469 178.535156 202.050781 178.464844 202.53125 178.441406 C 202.703125 178.773438 202.800781 179.148438 202.800781 179.542969 C 202.800781 180.886719 201.710938 181.972656 200.367188 181.972656 C 199.292969 181.972656 198.382812 181.273438 198.0625 180.304688 C 198.410156 180.046875 198.765625 179.792969 199.144531 179.558594 C 199.152344 180.230469 199.695312 180.769531 200.367188 180.769531 Z M 205.917969 178.847656 C 206.410156 180.289062 206.027344 182.003906 205.0625 183.183594 C 206.011719 183.203125 206.957031 182.839844 207.667969 182.207031 C 208.375 181.574219 208.835938 180.667969 208.921875 179.71875 C 209.398438 181.632812 208.121094 183.726562 206.394531 184.671875 C 204.667969 185.617188 202.539062 185.589844 200.652344 185.019531 C 199.609375 184.707031 198.597656 184.226562 197.945312 183.355469 C 199.578125 183.839844 201.40625 183.628906 202.886719 182.792969 C 204.371094 181.953125 205.488281 180.496094 205.917969 178.847656 Z M 169.078125 178.847656 C 169.503906 180.496094 170.625 181.953125 172.105469 182.792969 C 173.589844 183.628906 175.414062 183.839844 177.046875 183.355469 C 176.398438 184.226562 175.382812 184.707031 174.339844 185.019531 C 172.457031 185.589844 170.324219 185.617188 168.597656 184.671875 C 166.871094 183.726562 165.597656 181.632812 166.070312 179.71875 C 166.160156 180.667969 166.617188 181.574219 167.328125 182.207031 C 168.035156 182.839844 168.980469 183.203125 169.933594 183.183594 C 168.96875 182.003906 168.582031 180.289062 169.078125 178.847656 Z M 174.625 180.769531 C 175.296875 180.769531 175.84375 180.230469 175.851562 179.558594 C 176.226562 179.792969 176.582031 180.046875 176.929688 180.304688 C 176.613281 181.273438 175.699219 181.972656 174.625 181.972656 C 173.28125 181.972656 172.195312 180.886719 172.195312 179.542969 C 172.195312 179.148438 172.292969 178.773438 172.460938 178.441406 C 172.941406 178.464844 173.386719 178.535156 173.796875 178.640625 C 173.550781 178.867188 173.398438 179.1875 173.398438 179.542969 C 173.398438 180.222656 173.945312 180.769531 174.625 180.769531 Z M 181.976562 169.902344 C 183.558594 170.949219 184.417969 172.992188 184.058594 174.855469 C 183.703125 176.71875 182.148438 178.296875 180.289062 178.683594 C 180.214844 179.550781 180.15625 180.460938 180.316406 181.316406 C 180.476562 182.171875 180.894531 183.007812 181.632812 183.472656 C 180.359375 183.265625 179.523438 182.019531 179.019531 180.832031 C 178.515625 179.644531 178.121094 178.324219 177.121094 177.507812 C 176.316406 176.847656 175.230469 176.628906 174.1875 176.628906 C 173.148438 176.628906 172.117188 176.824219 171.078125 176.894531 C 170.039062 176.964844 168.953125 176.902344 168.03125 176.421875 C 167.105469 175.941406 166.386719 174.976562 166.464844 173.9375 C 166.824219 174.484375 167.359375 174.929688 167.96875 175.164062 C 169.503906 175.757812 171.195312 175.101562 172.785156 174.691406 C 173.929688 174.394531 175.125 174.226562 176.296875 174.382812 C 177.464844 174.535156 178.621094 175.03125 179.417969 175.90625 C 179.5 174.710938 178.886719 173.613281 177.882812 172.953125 C 176.882812 172.296875 175.6875 172.011719 174.519531 171.738281 C 173.351562 171.464844 172.160156 171.179688 171.160156 170.515625 C 170.164062 169.851562 169.386719 168.722656 169.480469 167.527344 C 169.746094 168.160156 170.285156 168.65625 170.917969 168.910156 C 171.550781 169.167969 172.246094 169.230469 172.929688 169.234375 C 174.46875 169.246094 176 168.96875 177.539062 168.914062 C 179.078125 168.859375 180.695312 169.050781 181.980469 169.902344 Z M 178.425781 148.78125 C 176.253906 148.28125 174.171875 147.253906 172.425781 145.871094 C 173.433594 148.511719 175.285156 150.804688 177.726562 152.226562 C 176.261719 152.125 174.742188 151.65625 173.402344 151.042969 C 173.78125 151.5625 174.261719 151.996094 174.75 152.414062 C 171.09375 154.359375 167.828125 157.160156 165.753906 160.742188 C 164.308594 160.664062 162.800781 161.273438 161.386719 160.972656 C 160.609375 160.808594 159.90625 160.332031 159.460938 159.671875 C 159.019531 159.015625 158.898438 158.105469 159.035156 157.324219 C 159.128906 158.292969 159.90625 159.085938 160.800781 159.472656 C 161.371094 159.722656 162.015625 159.832031 162.628906 159.722656 C 163.242188 159.613281 163.824219 159.265625 164.15625 158.738281 C 164.488281 158.207031 164.539062 157.5 164.230469 156.957031 C 163.921875 156.414062 163.253906 156.027344 162.652344 156.195312 C 163.382812 155.804688 164.265625 155.898438 165.085938 156.019531 C 165.902344 156.144531 166.75 156.308594 167.511719 155.984375 C 166.238281 155.035156 165.441406 153.660156 165.078125 152.117188 C 165.621094 152.886719 166.5 153.386719 167.421875 153.59375 C 168.34375 153.800781 169.339844 153.792969 170.265625 153.609375 C 169.519531 151.128906 167.472656 149.175781 165.03125 148.320312 C 166.882812 148.21875 168.800781 148.789062 170.289062 149.894531 C 169.75 143.621094 162.070312 136.804688 157.179688 134.40625 C 164 134.980469 172.296875 145.347656 178.425781 148.78125 Z M 155.886719 169.242188 C 156.425781 171.1875 156.121094 173.273438 155.007812 174.960938 C 156.570312 174.214844 157.828125 172.859375 158.40625 171.230469 C 158.121094 173.15625 157.21875 174.949219 155.71875 176.1875 C 154.214844 177.425781 152.125 178.148438 150.183594 178.058594 C 152.953125 175.824219 154.984375 172.683594 155.886719 169.242188 Z M 154.332031 180.773438 C 153.269531 181.695312 152.433594 182.792969 151.699219 183.996094 C 152.980469 183.472656 154.429688 183.273438 155.808594 183.335938 C 152.003906 184.398438 148.566406 186.898438 146.429688 190.222656 C 147.679688 186.195312 150.59375 182.714844 154.332031 180.773438 Z M 154.332031 180.773438 " fill-opacity="1" fill-rule="evenodd"/></g><g clip-path="url(#d38e435c41)"><path fill="#b5a36b" d="M 280.65625 211.015625 C 280.421875 210.941406 280.179688 211.070312 280.105469 211.296875 C 276.988281 220.976562 272.355469 230.078125 266.339844 238.355469 C 260.316406 246.636719 253.050781 253.894531 244.753906 259.917969 C 236.457031 265.941406 227.335938 270.589844 217.640625 273.742188 C 207.972656 276.882812 197.875 278.476562 187.628906 278.476562 C 177.386719 278.476562 167.289062 276.882812 157.621094 273.742188 C 147.925781 270.589844 138.804688 265.941406 130.507812 259.917969 C 122.207031 253.894531 114.945312 246.636719 108.921875 238.355469 C 102.90625 230.078125 98.273438 220.976562 95.152344 211.296875 C 95.078125 211.066406 94.832031 210.941406 94.605469 211.015625 C 94.375 211.089844 94.25 211.332031 94.320312 211.5625 C 97.472656 221.332031 102.148438 230.519531 108.214844 238.863281 C 114.289062 247.214844 121.617188 254.535156 129.992188 260.617188 C 138.367188 266.695312 147.570312 271.390625 157.347656 274.566406 C 167.109375 277.738281 177.296875 279.347656 187.628906 279.347656 C 197.960938 279.347656 208.148438 277.738281 217.910156 274.566406 C 227.6875 271.390625 236.894531 266.695312 245.265625 260.617188 C 253.644531 254.535156 260.972656 247.214844 267.042969 238.863281 C 273.113281 230.515625 277.789062 221.332031 280.9375 211.5625 C 281.011719 211.332031 280.882812 211.089844 280.65625 211.015625 Z M 127.910156 224.722656 C 132.480469 231.007812 137.984375 236.511719 144.273438 241.082031 C 150.527344 245.621094 157.429688 249.125 164.785156 251.496094 C 172.128906 253.867188 179.816406 255.066406 187.628906 255.066406 C 195.445312 255.066406 203.132812 253.867188 210.472656 251.496094 C 217.832031 249.125 224.730469 245.617188 230.984375 241.082031 C 237.273438 236.511719 242.78125 231.007812 247.347656 224.722656 C 251.910156 218.441406 255.425781 211.523438 257.800781 204.164062 C 257.835938 204.054688 257.824219 203.9375 257.773438 203.832031 C 257.71875 203.730469 257.628906 203.652344 257.519531 203.617188 C 257.40625 203.582031 257.289062 203.589844 257.183594 203.644531 C 257.082031 203.699219 257.003906 203.789062 256.96875 203.898438 C 254.625 211.171875 251.148438 218.003906 246.640625 224.210938 C 242.125 230.425781 236.683594 235.867188 230.46875 240.378906 C 224.292969 244.863281 217.476562 248.324219 210.207031 250.671875 C 202.953125 253.011719 195.355469 254.195312 187.628906 254.195312 C 179.902344 254.195312 172.304688 253.011719 165.050781 250.671875 C 157.78125 248.324219 150.964844 244.863281 144.789062 240.378906 C 138.574219 235.867188 133.132812 230.429688 128.617188 224.210938 C 124.109375 218.003906 120.632812 211.171875 118.289062 203.898438 C 118.253906 203.789062 118.179688 203.699219 118.074219 203.644531 C 117.972656 203.589844 117.851562 203.582031 117.742188 203.617188 C 117.511719 203.691406 117.386719 203.9375 117.460938 204.164062 C 119.832031 211.523438 123.351562 218.441406 127.914062 224.722656 Z M 257.890625 230.058594 C 257.96875 230.109375 258.054688 230.132812 258.136719 230.132812 C 258.277344 230.132812 258.414062 230.070312 258.5 229.945312 C 260.828125 226.554688 262.929688 222.96875 264.746094 219.28125 C 266.558594 215.601562 268.113281 211.757812 269.371094 207.863281 C 269.441406 207.636719 269.316406 207.390625 269.085938 207.316406 C 268.855469 207.246094 268.613281 207.367188 268.539062 207.597656 C 267.296875 211.453125 265.753906 215.257812 263.960938 218.898438 C 262.167969 222.542969 260.089844 226.09375 257.777344 229.453125 C 257.640625 229.652344 257.695312 229.921875 257.890625 230.058594 Z M 110.515625 219.28125 C 112.328125 222.964844 114.429688 226.550781 116.761719 229.945312 C 116.828125 230.039062 116.925781 230.105469 117.039062 230.128906 C 117.066406 230.132812 117.09375 230.132812 117.121094 230.132812 C 117.207031 230.132812 117.292969 230.109375 117.367188 230.058594 C 117.566406 229.925781 117.617188 229.652344 117.480469 229.453125 C 115.171875 226.09375 113.089844 222.542969 111.296875 218.898438 C 109.503906 215.257812 107.964844 211.453125 106.722656 207.597656 C 106.683594 207.488281 106.609375 207.398438 106.503906 207.34375 C 106.398438 207.289062 106.28125 207.28125 106.171875 207.316406 C 106.0625 207.351562 105.972656 207.429688 105.917969 207.53125 C 105.863281 207.636719 105.855469 207.753906 105.890625 207.863281 C 107.144531 211.757812 108.703125 215.601562 110.515625 219.28125 Z M 110.515625 219.28125 " fill-opacity="1" fill-rule="nonzero"/></g><g fill="#3d3835" fill-opacity="1"><g transform="translate(130.083718, 129.261178)"><g><path d="M 6.625 -23.96875 L 5.765625 -23.015625 L 12.296875 -10.75 L 10.109375 -8.84375 L 1.203125 -14.703125 L 1.15625 -14.65625 L 5.765625 -5.046875 L 3.59375 -3.140625 L -7.71875 -11.21875 L -8.78125 -10.5 L -10.015625 -11.9375 L -5.703125 -15.71875 L -4.46875 -14.28125 L -5.375 -13.171875 L 1.59375 -7.90625 L 1.640625 -7.9375 L -3.1875 -17.921875 L -1.453125 -19.421875 L 7.78125 -13.3125 L 7.828125 -13.359375 L 3.546875 -20.96875 L 2.3125 -20.203125 L 1.078125 -21.640625 L 5.390625 -25.40625 Z M 6.625 -23.96875 "/></g></g></g><g fill="#3d3835" fill-opacity="1"><g transform="translate(151.443408, 112.477614)"><g><path d="M -0.3125 -1.90625 L 0.640625 -2.46875 L -0.171875 -16.796875 L 2.765625 -18.015625 L 12.3125 -7.328125 L 13.421875 -7.625 L 14.140625 -5.890625 L 9.234375 -3.84375 L 8.515625 -5.578125 L 9.4375 -6.171875 L 7.984375 -7.875 L 3.328125 -5.921875 L 3.5 -3.703125 L 4.59375 -3.9375 L 5.3125 -2.203125 L 0.40625 -0.171875 Z M 3.125 -8.34375 L 6.421875 -9.71875 L 2.6875 -14.109375 L 2.625 -14.078125 Z M 3.125 -8.34375 "/></g></g></g><g fill="#3d3835" fill-opacity="1"><g transform="translate(172.110905, 104.800291)"><g><path d="M 14.953125 -17.078125 L 15.125 -15.203125 L 13.5 -14.734375 L 14.78125 -1.421875 L 11.6875 -1.125 L 4.40625 -10.953125 L 4.34375 -10.9375 L 5.140625 -2.6875 L 6.84375 -2.53125 L 7.015625 -0.671875 L 0.59375 -0.0625 L 0.421875 -1.921875 L 2.03125 -2.390625 L 0.953125 -13.53125 L -0.71875 -13.6875 L -0.890625 -15.5625 L 0.75 -15.71875 L 3.859375 -16.015625 L 11.140625 -6.1875 L 11.203125 -6.21875 L 10.40625 -14.4375 L 8.703125 -14.59375 L 8.53125 -16.46875 L 13.296875 -16.921875 Z M 14.953125 -17.078125 "/></g></g></g><g fill="#3d3835" fill-opacity="1"><g transform="translate(195.320188, 103.647888)"><g><path d="M 10.53125 -13.765625 C 12.40625 -13.378906 13.820312 -12.46875 14.78125 -11.03125 C 15.75 -9.601562 16.046875 -7.957031 15.671875 -6.09375 L 15.15625 -3.578125 C 14.78125 -1.691406 13.867188 -0.28125 12.421875 0.65625 C 10.984375 1.601562 9.328125 1.882812 7.453125 1.5 L 0.578125 0.125 L 0.953125 -1.71875 L 2.640625 -1.6875 L 4.859375 -12.65625 L 3.296875 -13.296875 L 3.65625 -15.140625 L 5.28125 -14.8125 Z M 7.875 -11.84375 L 5.734375 -1.28125 L 7.765625 -0.875 C 8.859375 -0.644531 9.789062 -0.835938 10.5625 -1.453125 C 11.34375 -2.066406 11.851562 -2.976562 12.09375 -4.1875 L 12.609375 -6.71875 C 12.847656 -7.90625 12.726562 -8.929688 12.25 -9.796875 C 11.78125 -10.660156 11 -11.207031 9.90625 -11.4375 Z M 7.875 -11.84375 "/></g></g></g><g fill="#3d3835" fill-opacity="1"><g transform="translate(216.22453, 108.866169)"><g><path d="M 12.609375 -1.1875 L 7.921875 -3.609375 L 5.875 0.34375 L 10.34375 2.65625 L 11.328125 1.0625 L 13.4375 2.15625 L 11.484375 5.9375 L 0.53125 0.265625 L 1.390625 -1.40625 L 3 -0.90625 L 8.140625 -10.84375 L 6.8125 -11.890625 L 7.6875 -13.578125 L 9.15625 -12.8125 L 18.625 -7.921875 L 16.65625 -4.125 L 14.515625 -5.21875 L 15.25 -6.953125 L 10.828125 -9.234375 L 9.03125 -5.75 L 13.71875 -3.328125 Z M 12.609375 -1.1875 "/></g></g></g><g fill="#3d3835" fill-opacity="1"><g transform="translate(234.007256, 118.987156)"><g><path d="M 16.203125 -6.140625 C 17.492188 -4.929688 18.226562 -3.6875 18.40625 -2.40625 C 18.582031 -1.132812 18.179688 0.0195312 17.203125 1.0625 C 16.671875 1.632812 16.050781 1.988281 15.34375 2.125 C 14.644531 2.257812 13.875 2.175781 13.03125 1.875 C 13.519531 2.695312 13.695312 3.472656 13.5625 4.203125 C 13.425781 4.941406 13.035156 5.65625 12.390625 6.34375 L 11.84375 6.921875 C 11.613281 7.160156 11.484375 7.394531 11.453125 7.625 C 11.421875 7.863281 11.507812 8.109375 11.71875 8.359375 L 11.9375 8.65625 L 10.65625 10.015625 L 9.484375 8.90625 C 8.742188 8.207031 8.410156 7.515625 8.484375 6.828125 C 8.554688 6.148438 8.890625 5.492188 9.484375 4.859375 L 10.09375 4.21875 C 10.613281 3.664062 10.875 3.09375 10.875 2.5 C 10.875 1.914062 10.613281 1.363281 10.09375 0.84375 L 8.234375 -0.90625 L 5.421875 2.09375 L 6.421875 3.46875 L 5.140625 4.828125 L 0.4375 0.40625 L 1.71875 -0.953125 L 3.140625 -0.046875 L 10.796875 -8.203125 L 9.8125 -9.5625 L 11.109375 -10.9375 L 12.3125 -9.796875 Z M 9.875 -2.65625 L 11.453125 -1.171875 C 12.078125 -0.578125 12.675781 -0.265625 13.25 -0.234375 C 13.832031 -0.210938 14.367188 -0.457031 14.859375 -0.96875 C 15.335938 -1.476562 15.554688 -2.03125 15.515625 -2.625 C 15.484375 -3.226562 15.160156 -3.816406 14.546875 -4.390625 L 12.9375 -5.90625 Z M 9.875 -2.65625 "/></g></g></g><g fill="#3d3835" fill-opacity="1"><g transform="translate(131.371543, 251.179546)"><g><path d="M 14.828125 0.21875 L 14.15625 -0.109375 L 8.046875 5.484375 L 6.625 4.515625 L 8.671875 -1.515625 L 8.625 -1.53125 L 3.765625 2.5625 L 2.34375 1.59375 L 5.328125 -6.125 L 4.75 -6.640625 L 5.375 -7.5625 L 8.203125 -5.640625 L 7.578125 -4.71875 L 6.78125 -5.078125 L 4.796875 -0.265625 L 4.828125 -0.25 L 9.84375 -4.515625 L 10.984375 -3.75 L 8.84375 2.484375 L 8.890625 2.515625 L 12.640625 -1.09375 L 12 -1.703125 L 12.625 -2.625 L 15.453125 -0.703125 Z M 14.828125 0.21875 "/></g></g></g><g fill="#3d3835" fill-opacity="1"><g transform="translate(148.336984, 261.65714)"><g><path d="M 3.4375 -7.421875 L 3.859375 -8.4375 L 7.421875 -6.984375 L 7 -5.96875 L 6 -6.15625 L 4.984375 -3.6875 L 8.484375 -2.25 L 9.5 -4.71875 L 8.65625 -5.28125 L 9.078125 -6.296875 L 10 -5.921875 L 11.71875 -5.21875 L 12.640625 -4.84375 L 12.21875 -3.828125 L 11.21875 -4.015625 L 8.6875 2.140625 L 9.53125 2.703125 L 9.109375 3.734375 L 5.546875 2.28125 L 5.96875 1.25 L 6.96875 1.4375 L 7.9375 -0.90625 L 4.4375 -2.34375 L 3.46875 0 L 4.3125 0.5625 L 3.890625 1.59375 L 0.328125 0.140625 L 0.75 -0.890625 L 1.75 -0.703125 L 4.28125 -6.859375 Z M 3.4375 -7.421875 "/></g></g></g><g fill="#3d3835" fill-opacity="1"><g transform="translate(164.702417, 267.508909)"><g><path d="M 2.171875 -7.875 L 2.421875 -8.96875 L 6.1875 -8.09375 L 5.9375 -7 L 4.921875 -7.046875 L 3.421875 -0.5625 L 4.34375 -0.125 L 4.09375 0.953125 L 0.328125 0.078125 L 0.578125 -1 L 1.609375 -0.984375 L 3.109375 -7.46875 Z M 2.171875 -7.875 "/></g></g></g><g fill="#3d3835" fill-opacity="1"><g transform="translate(176.166447, 269.75777)"><g><path d="M 7.875 -5.71875 L 6.5 -5.828125 L 6.359375 -7.109375 C 6.210938 -7.222656 5.984375 -7.332031 5.671875 -7.4375 C 5.367188 -7.539062 5.046875 -7.601562 4.703125 -7.625 C 4.191406 -7.664062 3.785156 -7.585938 3.484375 -7.390625 C 3.179688 -7.191406 3.019531 -6.929688 3 -6.609375 C 2.976562 -6.296875 3.101562 -6.023438 3.375 -5.796875 C 3.644531 -5.578125 4.132812 -5.320312 4.84375 -5.03125 C 5.832031 -4.675781 6.570312 -4.238281 7.0625 -3.71875 C 7.550781 -3.207031 7.765625 -2.578125 7.703125 -1.828125 C 7.640625 -1.035156 7.273438 -0.429688 6.609375 -0.015625 C 5.953125 0.390625 5.109375 0.550781 4.078125 0.46875 C 3.347656 0.40625 2.695312 0.234375 2.125 -0.046875 C 1.5625 -0.328125 1.097656 -0.691406 0.734375 -1.140625 L 0.890625 -3.0625 L 2.328125 -2.9375 L 2.421875 -1.625 C 2.585938 -1.457031 2.828125 -1.3125 3.140625 -1.1875 C 3.453125 -1.0625 3.804688 -0.984375 4.203125 -0.953125 C 4.710938 -0.910156 5.109375 -0.984375 5.390625 -1.171875 C 5.671875 -1.359375 5.820312 -1.625 5.84375 -1.96875 C 5.875 -2.3125 5.769531 -2.601562 5.53125 -2.84375 C 5.300781 -3.082031 4.878906 -3.320312 4.265625 -3.5625 C 3.191406 -3.96875 2.390625 -4.410156 1.859375 -4.890625 C 1.335938 -5.378906 1.109375 -6.003906 1.171875 -6.765625 C 1.234375 -7.503906 1.597656 -8.085938 2.265625 -8.515625 C 2.929688 -8.941406 3.75 -9.128906 4.71875 -9.078125 C 5.425781 -9.015625 6.066406 -8.847656 6.640625 -8.578125 C 7.210938 -8.316406 7.675781 -7.988281 8.03125 -7.59375 Z M 7.875 -5.71875 "/></g></g></g><g fill="#3d3835" fill-opacity="1"><g transform="translate(191.318386, 270.394573)"><g><path d="M 0.25 -1.140625 L 1.21875 -1.4375 L 0.578125 -8.0625 L -0.421875 -8.171875 L -0.53125 -9.265625 L 3.25 -9.640625 L 3.359375 -8.546875 L 2.421875 -8.25 L 2.65625 -5.765625 L 3.46875 -5.84375 L 4.984375 -8.625 L 4.4375 -8.640625 L 4.328125 -9.734375 L 8 -10.09375 L 8.109375 -9 L 7.125 -8.71875 L 5.140625 -5.46875 L 8.046875 -2.0625 L 8.984375 -1.984375 L 9.09375 -0.875 L 5.421875 -0.515625 L 5.3125 -1.625 L 5.890625 -1.765625 L 3.859375 -4.265625 L 2.8125 -4.171875 L 3.0625 -1.625 L 4.03125 -1.515625 L 4.140625 -0.40625 L 0.359375 -0.03125 Z M 0.25 -1.140625 "/></g></g></g><g fill="#3d3835" fill-opacity="1"><g transform="translate(207.745613, 268.116437)"><g><path d="M 5.015625 -5.640625 L 1.96875 -4.796875 L 2.6875 -2.25 L 5.578125 -3.0625 L 5.359375 -4.140625 L 6.734375 -4.53125 L 7.421875 -2.09375 L 0.34375 -0.09375 L 0.046875 -1.15625 L 0.9375 -1.625 L -0.859375 -8.03125 L -1.875 -7.953125 L -2.171875 -9.03125 L -1.21875 -9.296875 L 4.890625 -11.015625 L 5.578125 -8.5625 L 4.203125 -8.1875 L 3.828125 -9.21875 L 0.953125 -8.421875 L 1.578125 -6.1875 L 4.625 -7.03125 Z M 5.015625 -5.640625 "/></g></g></g><g fill="#3d3835" fill-opacity="1"><g transform="translate(222.570234, 263.306173)"><g><path d="M 0.03125 -10.328125 C 0.976562 -10.785156 1.820312 -10.929688 2.5625 -10.765625 C 3.3125 -10.597656 3.875 -10.128906 4.25 -9.359375 C 4.457031 -8.929688 4.519531 -8.507812 4.4375 -8.09375 C 4.363281 -7.675781 4.15625 -7.265625 3.8125 -6.859375 C 4.382812 -6.953125 4.859375 -6.878906 5.234375 -6.640625 C 5.609375 -6.410156 5.921875 -6.039062 6.171875 -5.53125 L 6.375 -5.109375 C 6.457031 -4.929688 6.5625 -4.804688 6.6875 -4.734375 C 6.8125 -4.671875 6.96875 -4.675781 7.15625 -4.75 L 7.359375 -4.8125 L 7.84375 -3.796875 L 6.984375 -3.390625 C 6.429688 -3.117188 5.972656 -3.078125 5.609375 -3.265625 C 5.253906 -3.453125 4.960938 -3.78125 4.734375 -4.25 L 4.5 -4.71875 C 4.300781 -5.125 4.035156 -5.390625 3.703125 -5.515625 C 3.378906 -5.640625 3.019531 -5.613281 2.625 -5.4375 L 1.234375 -4.765625 L 2.296875 -2.578125 L 3.296875 -2.828125 L 3.78125 -1.828125 L 0.328125 -0.15625 L -0.15625 -1.15625 L 0.625 -1.765625 L -2.265625 -7.75 L -3.234375 -7.515625 L -3.71875 -8.515625 L -2.84375 -8.9375 Z M 0.609375 -6.0625 L 1.78125 -6.640625 C 2.25 -6.859375 2.550781 -7.125 2.6875 -7.4375 C 2.820312 -7.75 2.796875 -8.09375 2.609375 -8.46875 C 2.429688 -8.84375 2.171875 -9.082031 1.828125 -9.1875 C 1.492188 -9.300781 1.101562 -9.25 0.65625 -9.03125 L -0.546875 -8.453125 Z M 0.609375 -6.0625 "/></g></g></g><g fill="#3d3835" fill-opacity="1"><g transform="translate(236.850731, 255.637481)"><g><path d="M 2.296875 -9.453125 L 1.171875 -8.640625 L 0.234375 -9.53125 C 0.046875 -9.519531 -0.195312 -9.453125 -0.5 -9.328125 C -0.800781 -9.210938 -1.085938 -9.054688 -1.359375 -8.859375 C -1.773438 -8.554688 -2.03125 -8.234375 -2.125 -7.890625 C -2.226562 -7.546875 -2.1875 -7.238281 -2 -6.96875 C -1.8125 -6.71875 -1.535156 -6.59375 -1.171875 -6.59375 C -0.816406 -6.601562 -0.285156 -6.734375 0.421875 -6.984375 C 1.410156 -7.347656 2.257812 -7.492188 2.96875 -7.421875 C 3.675781 -7.359375 4.253906 -7.019531 4.703125 -6.40625 C 5.160156 -5.757812 5.269531 -5.0625 5.03125 -4.3125 C 4.789062 -3.570312 4.25 -2.898438 3.40625 -2.296875 C 2.820312 -1.867188 2.21875 -1.570312 1.59375 -1.40625 C 0.976562 -1.25 0.390625 -1.226562 -0.171875 -1.34375 L -1.3125 -2.90625 L -0.140625 -3.75 L 0.78125 -2.796875 C 1.03125 -2.785156 1.3125 -2.832031 1.625 -2.9375 C 1.9375 -3.039062 2.253906 -3.207031 2.578125 -3.4375 C 2.992188 -3.738281 3.25 -4.050781 3.34375 -4.375 C 3.4375 -4.695312 3.378906 -5 3.171875 -5.28125 C 2.960938 -5.5625 2.691406 -5.71875 2.359375 -5.75 C 2.035156 -5.78125 1.5625 -5.691406 0.9375 -5.484375 C -0.144531 -5.097656 -1.039062 -4.914062 -1.75 -4.9375 C -2.46875 -4.957031 -3.050781 -5.273438 -3.5 -5.890625 C -3.9375 -6.503906 -4.035156 -7.191406 -3.796875 -7.953125 C -3.566406 -8.710938 -3.0625 -9.382812 -2.28125 -9.96875 C -1.707031 -10.382812 -1.113281 -10.675781 -0.5 -10.84375 C 0.101562 -11.007812 0.664062 -11.0625 1.1875 -11 Z M 2.296875 -9.453125 "/></g></g></g><path stroke-linecap="round" transform="matrix(0.75, 0.000000000000000381, -0.000000000000000381, 0.75, 85.773323, 180.781512)" fill="none" stroke-linejoin="miter" d="M 1.000153 0.999651 L 54.953281 0.999651 " stroke="#b5a36b" stroke-width="2" stroke-opacity="1" stroke-miterlimit="4"/><path stroke-linecap="round" transform="matrix(0.75, 0.000000000000000381, -0.000000000000000381, 0.75, 247.259813, 180.781512)" fill="none" stroke-linejoin="miter" d="M 1.002541 0.999651 L 54.95567 0.999651 " stroke="#b5a36b" stroke-width="2" stroke-opacity="1" stroke-miterlimit="4"/></svg>